<?xml version="1.0" encoding="UTF-8" standalone="no"?>
<svg
   xmlns:dc="http://purl.org/dc/elements/1.1/"
   xmlns:cc="http://creativecommons.org/ns#"
   xmlns:rdf="http://www.w3.org/1999/02/22-rdf-syntax-ns#"
   xmlns:svg="http://www.w3.org/2000/svg"
   xmlns="http://www.w3.org/2000/svg"
   xmlns:sodipodi="http://sodipodi.sourceforge.net/DTD/sodipodi-0.dtd"
   xmlns:inkscape="http://www.inkscape.org/namespaces/inkscape"
   sodipodi:docname="omr_marker_new.svg"
   inkscape:version="1.0 (4035a4f, 2020-05-01)"
   inkscape:export-ydpi="96"
   inkscape:export-xdpi="96"
   inkscape:export-filename="/home/sadhgun_sobti/Documents/projects/OMRChecker/inputs/Symptom Registry/Page1/omr_marker_new.png"
   id="svg921"
   version="1.1"
   viewBox="0 0 42.333332 42.333335"
   height="160"
   width="160">
  <defs
     id="defs915" />
  <sodipodi:namedview
     inkscape:window-maximized="1"
     inkscape:window-y="0"
     inkscape:window-x="0"
     inkscape:window-height="740"
     inkscape:window-width="1366"
     units="px"
     showgrid="false"
     inkscape:document-rotation="0"
     inkscape:current-layer="g1490"
     inkscape:document-units="mm"
     inkscape:cy="90.7523"
     inkscape:cx="110.0681"
     inkscape:zoom="2.8"
     inkscape:pageshadow="2"
     inkscape:pageopacity="0.0"
     borderopacity="1.0"
     bordercolor="#666666"
     pagecolor="#ffffff"
     id="base" />
  <metadata
     id="metadata918">
    <rdf:RDF>
      <cc:Work
         rdf:about="">
        <dc:format>image/svg+xml</dc:format>
        <dc:type
           rdf:resource="http://purl.org/dc/dcmitype/StillImage" />
        <dc:title></dc:title>
      </cc:Work>
    </rdf:RDF>
  </metadata>
  <g
     id="layer1"
     inkscape:groupmode="layer"
     inkscape:label="Layer 1">
    <g
       id="g1490">
      <g
         id="g1507">
        <path
           id="path1484"
           style="fill:#000000;stroke-width:19.2537"
           d="M 79.941406,0 A 79.999997,79.999997 0 0 0 0,80 79.999997,79.999997 0 0 0 80,160 79.999997,79.999997 0 0 0 160,80 79.999997,79.999997 0 0 0 80,0 79.999997,79.999997 0 0 0 79.941406,0 Z M 80,15 A 64.999997,64.999997 0 0 1 145,80 64.999997,64.999997 0 0 1 80,145 64.999997,64.999997 0 0 1 15,80 64.999997,64.999997 0 0 1 80,15 Z"
           transform="scale(0.26458333)" />
        <path
           id="path1495"
           style="fill:#000000;stroke-width:17.9127"
           d="M 79.947266,30 A 50.000001,50.000001 0 0 0 30,80 50.000001,50.000001 0 0 0 80,130 50.000001,50.000001 0 0 0 130,80 50.000001,50.000001 0 0 0 80,30 50.000001,50.000001 0 0 0 79.947266,30 Z M 79.744141,45 A 35.000001,35.000001 0 0 1 80,45 35.000001,35.000001 0 0 1 115,80 35.000001,35.000001 0 0 1 80,115 35.000001,35.000001 0 0 1 45,80 35.000001,35.000001 0 0 1 79.744141,45 Z"
           transform="scale(0.26458333)" />
        <circle
           style="fill:#000000;stroke-width:2.22154"
           id="path1502"
           cx="21.166666"
           cy="21.166666"
           r="5.2916665" />
      </g>
    </g>
  </g>
</svg>
