<svg xmlns="http://www.w3.org/2000/svg" xmlns:svg="http://www.w3.org/2000/svg" id="svg921" width="160" height="160" version="1.1" viewBox="0 0 42.333 42.333"><metadata id="metadata918"/><g id="layer1"><g id="g1490"><g id="g1507"><path id="path1484" style="fill:#000;stroke-width:19.2537" d="M 79.941406,0 A 79.999997,79.999997 0 0 0 0,80 79.999997,79.999997 0 0 0 80,160 79.999997,79.999997 0 0 0 160,80 79.999997,79.999997 0 0 0 80,0 79.999997,79.999997 0 0 0 79.941406,0 Z M 80,15 A 64.999997,64.999997 0 0 1 145,80 64.999997,64.999997 0 0 1 80,145 64.999997,64.999997 0 0 1 15,80 64.999997,64.999997 0 0 1 80,15 Z" transform="scale(0.26458333)"/><path id="path1495" style="fill:#000;stroke-width:17.9127" d="M 79.947266,30 A 50.000001,50.000001 0 0 0 30,80 50.000001,50.000001 0 0 0 80,130 50.000001,50.000001 0 0 0 130,80 50.000001,50.000001 0 0 0 80,30 50.000001,50.000001 0 0 0 79.947266,30 Z M 79.744141,45 A 35.000001,35.000001 0 0 1 80,45 35.000001,35.000001 0 0 1 115,80 35.000001,35.000001 0 0 1 80,115 35.000001,35.000001 0 0 1 45,80 35.000001,35.000001 0 0 1 79.744141,45 Z" transform="scale(0.26458333)"/><circle style="fill:#000;stroke-width:2.22154" id="path1502" cx="21.167" cy="21.167" r="5.292"/></g></g></g></svg>